<svg xmlns="http://www.w3.org/2000/svg" viewBox="0 0 48 48">
  <g>
    <path d="M45.572.083H2.428C1.104.083.031 1.154.031 2.479v28.659c0 1.325 1.073 2.397 2.397 2.397h19.074v7.293l-7.24 7.088h19.475l-7.24-7.088v-7.293h19.075c1.324 0 2.396-1.072 2.396-2.397V2.479c.001-1.325-1.072-2.396-2.396-2.396zm-2.397 26.313c0 1.325-1.072 2.397-2.396 2.397H7.222c-1.323 0-2.396-1.072-2.396-2.397V7.222c0-1.324 1.073-2.396 2.396-2.396h33.557c1.324 0 2.396 1.072 2.396 2.396v19.174z"/>
    <path d="m33.756 10.817-8.429 8.431-5.58-5.577-3.573 3.574.024.024-9.13 9.127h7.144l5.559-5.556 5.561 5.556 3.574-3.571-.01-.003 8.409-8.407 1.778 1.805 1.85-8.921-9.022 1.65z"/>
  </g>
</svg>