<svg xmlns="http://www.w3.org/2000/svg" fill="white" height="100" viewBox="0 0 32 32" width="100">
    <path d="M12 7.5L12 25 13 25 13 12.6 26 7 12 1 12 7.5 12 7.5 12 7.5ZM14 20.1C14.8 20 15.6 20 16.5 20 22.9 20 28 22 28 24.5 28 27 22.9 29 16.5 29 10.1 29 5 27 5 24.5 5 22.8 7.4 21.3 11 20.5L11 23.3C10.4 23.6 10 24 10 24.5 10 25.3 11.1 26 12.5 26 13.9 26 15 25.3 15 24.5 15 24 14.6 23.6 14 23.3L14 20.1 14 20.1 14 20.1ZM20.5 25C21.3 25 22 24.6 22 24 22 23.4 21.3 23 20.5 23 19.7 23 19 23.4 19 24 19 24.6 19.7 25 20.5 25L20.5 25Z"/>
</svg>