<svg xmlns="http://www.w3.org/2000/svg" viewBox="0 0 32 32" fill="#263238">
  <path  d="M30.5 28h-29c-.276 0-.5-.224-.5-.5v-23c0-.276.224-.5.5-.5h29c.276 0 .5.224.5.5v23c0 .276-.224.5-.5.5zM2 27h28V5H2v22z"/>
  <path  d="M28.5 26h-23c-.276 0-.5-.224-.5-.5s.224-.5.5-.5H28V6.5c0-.276.224-.5.5-.5s.5.224.5.5v19c0 .276-.224.5-.5.5zm-25 0c-.276 0-.5-.224-.5-.5v-19c0-.276.224-.5.5-.5h23c.276 0 .5.224.5.5s-.224.5-.5.5H4v18.5c0 .276-.224.5-.5.5z"/>
  <path  d="M16.834 26c-2.557 0-4.2-2.038-5.94-4.195C8.989 19.442 7.019 17 3.666 17c-.276 0-.5-.224-.5-.5s.224-.5.5-.5c3.832 0 6.05 2.751 8.007 5.178C13.327 23.229 14.755 25 16.834 25c.276 0 .5.224.5.5s-.224.5-.5.5z"/>
  <path  d="M11.612 22.077c-.276 0-.5-.224-.5-.5s.224-.5.5-.5c5.047 0 7.093-2.524 9.07-4.965 1.801-2.223 3.664-4.521 7.642-4.607.279-.01.505.214.511.489.006.276-.213.505-.489.511-3.514.075-5.077 2.004-6.886 4.237-2.026 2.5-4.323 5.335-9.848 5.335zM13 15c-1.654 0-3-1.346-3-3s1.346-3 3-3 3 1.346 3 3-1.346 3-3 3zm0-5c-1.103 0-2 .897-2 2s.897 2 2 2 2-.897 2-2-.897-2-2-2z"/>
</svg>